<mxfile host="app.diagrams.net" modified="2024-04-30T10:25:39.830Z" agent="Mozilla/5.0 (Windows NT 10.0; Win64; x64) AppleWebKit/537.36 (KHTML, like Gecko) Chrome/121.0.0.0 Safari/537.36" etag="p1wwl4Ib1hh5MK7fYdlh" version="24.3.0" type="device">
  <diagram name="Страница — 1" id="AsTXVTXses3cJ3r14Elh">
    <mxGraphModel dx="1276" dy="556" grid="1" gridSize="10" guides="1" tooltips="1" connect="1" arrows="1" fold="1" page="1" pageScale="1" pageWidth="827" pageHeight="1169" math="0" shadow="0">
      <root>
        <mxCell id="0" />
        <mxCell id="1" parent="0" />
        <mxCell id="D17kC6ZJJWBjD_XxbEzI-8" style="edgeStyle=orthogonalEdgeStyle;rounded=0;orthogonalLoop=1;jettySize=auto;html=1;entryX=0.5;entryY=0;entryDx=0;entryDy=0;" edge="1" parent="1" source="D17kC6ZJJWBjD_XxbEzI-2" target="D17kC6ZJJWBjD_XxbEzI-7">
          <mxGeometry relative="1" as="geometry" />
        </mxCell>
        <mxCell id="D17kC6ZJJWBjD_XxbEzI-2" value="string[] array1&lt;div&gt;string[] array2&lt;/div&gt;&lt;div&gt;int count = 0&lt;/div&gt;" style="shape=parallelogram;perimeter=parallelogramPerimeter;whiteSpace=wrap;html=1;fixedSize=1;" vertex="1" parent="1">
          <mxGeometry x="280" y="140" width="160" height="70" as="geometry" />
        </mxCell>
        <mxCell id="D17kC6ZJJWBjD_XxbEzI-6" style="edgeStyle=orthogonalEdgeStyle;rounded=0;orthogonalLoop=1;jettySize=auto;html=1;entryX=0.5;entryY=0;entryDx=0;entryDy=0;" edge="1" parent="1" source="D17kC6ZJJWBjD_XxbEzI-3" target="D17kC6ZJJWBjD_XxbEzI-2">
          <mxGeometry relative="1" as="geometry" />
        </mxCell>
        <mxCell id="D17kC6ZJJWBjD_XxbEzI-3" value="Second Array Withif" style="ellipse;whiteSpace=wrap;html=1;" vertex="1" parent="1">
          <mxGeometry x="280" y="40" width="160" height="70" as="geometry" />
        </mxCell>
        <mxCell id="D17kC6ZJJWBjD_XxbEzI-11" style="edgeStyle=orthogonalEdgeStyle;rounded=0;orthogonalLoop=1;jettySize=auto;html=1;entryX=0.5;entryY=0;entryDx=0;entryDy=0;" edge="1" parent="1" source="D17kC6ZJJWBjD_XxbEzI-7" target="D17kC6ZJJWBjD_XxbEzI-9">
          <mxGeometry relative="1" as="geometry" />
        </mxCell>
        <mxCell id="D17kC6ZJJWBjD_XxbEzI-7" value="for (int i = 0;&lt;div&gt;i &amp;lt; array1.length;&lt;/div&gt;&lt;div&gt;i++)&lt;/div&gt;" style="shape=hexagon;perimeter=hexagonPerimeter2;whiteSpace=wrap;html=1;fixedSize=1;" vertex="1" parent="1">
          <mxGeometry x="280" y="240" width="160" height="70" as="geometry" />
        </mxCell>
        <mxCell id="D17kC6ZJJWBjD_XxbEzI-14" style="edgeStyle=orthogonalEdgeStyle;rounded=0;orthogonalLoop=1;jettySize=auto;html=1;" edge="1" parent="1" source="D17kC6ZJJWBjD_XxbEzI-9" target="D17kC6ZJJWBjD_XxbEzI-12">
          <mxGeometry relative="1" as="geometry" />
        </mxCell>
        <mxCell id="D17kC6ZJJWBjD_XxbEzI-24" style="edgeStyle=orthogonalEdgeStyle;rounded=0;orthogonalLoop=1;jettySize=auto;html=1;entryX=0;entryY=0.75;entryDx=0;entryDy=0;" edge="1" parent="1" source="D17kC6ZJJWBjD_XxbEzI-9" target="D17kC6ZJJWBjD_XxbEzI-7">
          <mxGeometry relative="1" as="geometry">
            <mxPoint x="270" y="290" as="targetPoint" />
            <Array as="points">
              <mxPoint x="190" y="375" />
              <mxPoint x="190" y="291" />
            </Array>
          </mxGeometry>
        </mxCell>
        <mxCell id="D17kC6ZJJWBjD_XxbEzI-9" value="if (array1[i].lenght &amp;lt;= 3)" style="rhombus;whiteSpace=wrap;html=1;" vertex="1" parent="1">
          <mxGeometry x="280" y="340" width="160" height="70" as="geometry" />
        </mxCell>
        <mxCell id="D17kC6ZJJWBjD_XxbEzI-23" style="edgeStyle=orthogonalEdgeStyle;rounded=0;orthogonalLoop=1;jettySize=auto;html=1;entryX=0;entryY=0.5;entryDx=0;entryDy=0;" edge="1" parent="1" source="D17kC6ZJJWBjD_XxbEzI-12" target="D17kC6ZJJWBjD_XxbEzI-7">
          <mxGeometry relative="1" as="geometry">
            <Array as="points">
              <mxPoint x="140" y="480" />
              <mxPoint x="140" y="275" />
            </Array>
          </mxGeometry>
        </mxCell>
        <mxCell id="D17kC6ZJJWBjD_XxbEzI-12" value="array2[count] = array1[i]&lt;div&gt;count++;&lt;/div&gt;" style="rounded=0;whiteSpace=wrap;html=1;" vertex="1" parent="1">
          <mxGeometry x="280" y="440" width="160" height="70" as="geometry" />
        </mxCell>
        <mxCell id="D17kC6ZJJWBjD_XxbEzI-17" value="Yes" style="text;html=1;align=center;verticalAlign=middle;resizable=0;points=[];autosize=1;strokeColor=none;fillColor=none;" vertex="1" parent="1">
          <mxGeometry x="140" y="450" width="40" height="30" as="geometry" />
        </mxCell>
        <mxCell id="D17kC6ZJJWBjD_XxbEzI-18" value="No" style="text;html=1;align=center;verticalAlign=middle;resizable=0;points=[];autosize=1;strokeColor=none;fillColor=none;" vertex="1" parent="1">
          <mxGeometry x="220" y="340" width="40" height="30" as="geometry" />
        </mxCell>
      </root>
    </mxGraphModel>
  </diagram>
</mxfile>
